<svg xmlns="http://www.w3.org/2000/svg" width="64" height="64" viewBox="0 0 64 64" fill="none">

<defs>
  <linearGradient id="outer" x1="8" y1="6" x2="58" y2="62" gradientUnits="userSpaceOnUse">
    <stop offset="0" stop-color="#D8FFFF"/>
    <stop offset=".16" stop-color="#50F2FF"/>
    <stop offset=".55" stop-color="#08C8D8"/>
    <stop offset="1" stop-color="#087087"/>
  </linearGradient>
  <linearGradient id="inner" x1="14" y1="10" x2="54" y2="58" gradientUnits="userSpaceOnUse">
    <stop offset="0" stop-color="#126A7B"/>
    <stop offset=".40" stop-color="#064353"/>
    <stop offset="1" stop-color="#021E2B"/>
  </linearGradient>
  <linearGradient id="shine" x1="12" y1="7" x2="47" y2="40" gradientUnits="userSpaceOnUse">
    <stop stop-color="#FFFFFF" stop-opacity=".30"/>
    <stop offset=".55" stop-color="#FFFFFF" stop-opacity=".04"/>
    <stop offset="1" stop-color="#FFFFFF" stop-opacity="0"/>
  </linearGradient>
  <filter id="glow" x="-40%" y="-40%" width="180%" height="180%">
    <feGaussianBlur stdDeviation="2.1" result="blur"/>
    <feColorMatrix in="blur" type="matrix"
      values="0 0 0 0 0.00
              0 0 0 0 0.86
              0 0 0 0 1.00
              0 0 0 .68 0" result="cyan"/>
    <feMerge>
      <feMergeNode in="cyan"/>
      <feMergeNode in="SourceGraphic"/>
    </feMerge>
  </filter>
  <filter id="softShadow" x="-30%" y="-30%" width="160%" height="170%">
    <feDropShadow dx="0" dy="4" stdDeviation="3" flood-color="#000814" flood-opacity=".72"/>
  </filter>
</defs>


<g filter="url(#softShadow)">
  <path d="M32 2.7 57.2 17.2v29.1L32 61 6.8 46.3V17.2L32 2.7Z"
        fill="#01141F" stroke="url(#outer)" stroke-width="2.4" stroke-linejoin="round"/>
  <path d="M32 6.4 53.9 19v25.3L32 57 10.1 44.3V19L32 6.4Z"
        fill="url(#inner)" stroke="#5EEDFA" stroke-opacity=".26" stroke-width="1"/>
  <path d="M12 19.2 32 7.6 52 19.2 32 34.5Z" fill="url(#shine)" opacity=".72"/>
  <path d="M32 6.4 53.9 19v25.3L32 57 10.1 44.3V19L32 6.4Z"
        fill="none" stroke="#0DE6F2" stroke-opacity=".32" stroke-width=".7"/>
</g>

<g filter="url(#glow)" stroke-linecap="round" stroke-linejoin="round">

  <path d="M22 42c-7-5-9-13-6-21M42 42c7-5 9-13 6-21" stroke="#F4FFFF" stroke-width="2.4"/>
  <path d="M19 36c-3-.2-5-1.4-7-3.5M18 31c-3-.7-4.8-2.3-6.2-4.8M18 26c-2.6-1.2-4-3.2-4.8-5.6M21 39c-2.7.5-5.2-.2-7.5-1.7
           M45 36c3-.2 5-1.4 7-3.5M46 31c3-.7 4.8-2.3 6.2-4.8M46 26c2.6-1.2 4-3.2 4.8-5.6M43 39c2.7.5 5.2-.2 7.5-1.7"
        stroke="#F4FFFF" stroke-width="2.2"/>
  <path d="M24 43c5 2 11 2 16 0" stroke="#F4FFFF" stroke-width="2.5"/>

</g>

</svg>
